#N canvas 543 168 450 513 10;
#X obj 24 99 route 1 2 3 4;
#X obj 182 450 dac~;
#X obj 253 389 *~;
#X obj 136 386 *~;
#X obj 263 323 dbtorms;
#X obj 372 88 vsl 15 128 0 110 0 1 empty empty empty 0 -9 0 10 -262144
-1 -1 10391 1;
#X floatatom 372 225 5 0 0 0 - - -, f 5;
#X obj 61 271 rev3~ 100 80 3000 10;
#X obj 24 128 instruments/sine-clip;
#X obj 60 159 instruments/pulse-train;
#X obj 89 186 instruments/classic-synth;
#X obj 116 212 instruments/phase-mod;
#X obj 186 36 loadbang;
#X msg 186 58 \; pd dsp 1;
#X obj 24 29 netreceive 8888;
#X connect 0 0 8 0;
#X connect 0 1 9 0;
#X connect 0 2 10 0;
#X connect 0 3 11 0;
#X connect 2 0 1 1;
#X connect 3 0 1 0;
#X connect 4 0 2 1;
#X connect 4 0 3 1;
#X connect 5 0 6 0;
#X connect 5 0 4 0;
#X connect 7 0 3 0;
#X connect 7 1 2 0;
#X connect 7 2 3 0;
#X connect 7 3 2 0;
#X connect 8 0 7 0;
#X connect 9 0 7 0;
#X connect 10 0 7 1;
#X connect 11 0 7 1;
#X connect 12 0 13 0;
#X connect 14 0 0 0;
