#N canvas 692 247 450 423 10;
#X obj -44 196 vcf~ 3;
#X obj 101 135 mtof;
#X obj 101 88 * 60;
#N canvas 568 77 781 654 \$016x 0;
#X obj 46 281 *~ 0.064;
#X obj 46 304 rpole~ 0.93538;
#X obj 46 327 *~ 0.00431;
#X obj 46 350 cpole~ 0.96559 0.05592;
#X obj 46 376 cpole~ 0.96559 -0.05592;
#X obj 46 399 *~ 0.125;
#X obj 46 422 rzero~ -1;
#X obj 46 445 rzero~ -1;
#X obj 46 468 rzero~ -1;
#X obj 45 125 phasor~;
#X obj 46 502 outlet~;
#X obj 68 179 wrap~;
#X obj 45 232 +~;
#X obj 140 131 phasor~;
#X obj 163 185 wrap~;
#X obj 140 238 +~;
#X obj 45 258 +~;
#X obj 103 26 block~ 1024 1 16;
#X obj 45 27 inlet;
#X obj 68 155 -~ 0.5;
#X obj 67 203 *~ -0.5;
#X obj 163 161 -~ 0.5;
#X obj 163 209 *~ 0.5;
#X obj 141 103 +~ 0.5;
#X obj 142 78 *~ 1;
#X connect 0 0 1 0;
#X connect 1 0 2 0;
#X connect 2 0 3 0;
#X connect 3 0 4 0;
#X connect 3 1 4 1;
#X connect 4 0 5 0;
#X connect 5 0 6 0;
#X connect 6 0 7 0;
#X connect 7 0 8 0;
#X connect 8 0 10 0;
#X connect 9 0 12 0;
#X connect 9 0 19 0;
#X connect 11 0 20 0;
#X connect 12 0 16 0;
#X connect 13 0 15 0;
#X connect 13 0 21 0;
#X connect 14 0 22 0;
#X connect 15 0 16 1;
#X connect 16 0 0 0;
#X connect 18 0 9 0;
#X connect 18 0 24 0;
#X connect 19 0 11 0;
#X connect 20 0 12 1;
#X connect 21 0 14 0;
#X connect 22 0 15 1;
#X connect 23 0 13 0;
#X connect 24 0 23 0;
#X restore -43 170 pd \$016x;
#X obj 101 112 + 80;
#X obj -44 222 *~ 2;
#X obj 101 64 / 10;
#X obj -59 329 outlet~;
#X obj -150 14 inlet;
#X obj -150 36 unpack f f f;
#X obj -150 57 sel 0;
#X obj -142 207 sig~;
#X obj -142 135 t b b;
#X obj -142 157 del 100;
#X msg -142 181 0;
#X msg -102 181 1;
#X obj -115 98 t b f;
#X obj -59 306 *~;
#X obj -40 273 *~;
#X obj -43 148 mtof;
#X obj -142 229 lop~ 20;
#X obj 32 106 / 11;
#X obj 32 174 t f f;
#X obj 32 196 *;
#X obj 32 219 t f f;
#X obj 32 241 *;
#X obj 32 83 + 1;
#X obj 32 150 + 0.5;
#X obj 32 128 * 0.5;
#X obj -43 126 + 12;
#X connect 0 0 5 0;
#X connect 1 0 0 1;
#X connect 2 0 4 0;
#X connect 3 0 0 0;
#X connect 4 0 1 0;
#X connect 5 0 18 0;
#X connect 6 0 2 0;
#X connect 8 0 9 0;
#X connect 9 0 10 0;
#X connect 9 1 26 0;
#X connect 9 2 6 0;
#X connect 10 1 16 0;
#X connect 11 0 20 0;
#X connect 12 0 13 0;
#X connect 12 1 15 0;
#X connect 13 0 14 0;
#X connect 14 0 11 0;
#X connect 15 0 11 0;
#X connect 16 0 12 0;
#X connect 16 1 29 0;
#X connect 17 0 7 0;
#X connect 18 0 17 1;
#X connect 19 0 3 0;
#X connect 20 0 17 0;
#X connect 21 0 28 0;
#X connect 22 0 23 0;
#X connect 22 1 23 1;
#X connect 23 0 24 0;
#X connect 24 0 25 0;
#X connect 24 1 25 1;
#X connect 25 0 18 1;
#X connect 26 0 21 0;
#X connect 27 0 22 0;
#X connect 28 0 27 0;
#X connect 29 0 19 0;
