#N canvas 623 178 450 417 10;
#X obj 26 185 osc~;
#X obj 26 209 *~;
#X obj 26 258 cos~;
#X obj 215 139 +~ 0.5;
#X obj -39 13 inlet;
#X obj 3 373 outlet~;
#X obj 215 115 * 1.5;
#X obj 25 163 / 2;
#X obj 25 234 +~ 0.25;
#X obj -48 211 sig~;
#X obj -48 139 t b b;
#X obj -48 161 del 100;
#X msg -48 185 0;
#X msg -8 185 1;
#X obj 2 350 *~;
#X obj -39 35 unpack f f f;
#X obj -39 56 sel 0;
#X obj 25 141 mtof;
#X obj -7 89 t b f;
#X obj 215 91 / 10;
#X obj 26 311 *~;
#X obj 133 279 * 0.8;
#X obj 133 119 / 11;
#X obj 133 187 t f f;
#X obj 133 209 *;
#X obj 133 232 t f f;
#X obj 133 254 *;
#X obj 133 96 + 1;
#X obj 133 163 + 0.5;
#X obj 133 141 * 0.5;
#X obj -48 233 lop~ 20;
#X obj 25 114 + 24;
#X connect 0 0 1 0;
#X connect 1 0 8 0;
#X connect 2 0 20 0;
#X connect 3 0 1 1;
#X connect 4 0 15 0;
#X connect 6 0 3 0;
#X connect 7 0 0 0;
#X connect 8 0 2 0;
#X connect 9 0 30 0;
#X connect 10 0 11 0;
#X connect 10 1 13 0;
#X connect 11 0 12 0;
#X connect 12 0 9 0;
#X connect 13 0 9 0;
#X connect 14 0 5 0;
#X connect 15 0 16 0;
#X connect 15 1 27 0;
#X connect 15 2 19 0;
#X connect 16 1 18 0;
#X connect 17 0 7 0;
#X connect 18 0 10 0;
#X connect 18 1 31 0;
#X connect 19 0 6 0;
#X connect 20 0 14 1;
#X connect 21 0 20 1;
#X connect 22 0 29 0;
#X connect 23 0 24 0;
#X connect 23 1 24 1;
#X connect 24 0 25 0;
#X connect 25 0 26 0;
#X connect 25 1 26 1;
#X connect 26 0 21 0;
#X connect 27 0 22 0;
#X connect 28 0 23 0;
#X connect 29 0 28 0;
#X connect 30 0 14 0;
#X connect 31 0 17 0;
