#N canvas 742 211 469 390 10;
#X obj 149 244 cos~;
#X obj 150 171 -~ 0.5;
#X obj 150 197 *~;
#X obj 149 220 clip~ -0.5 0.5;
#X obj 208 148 +~ 1;
#X obj 149 268 +~ 1;
#X obj 150 147 phasor~;
#X obj 149 292 -~ 1;
#X obj 130 370 outlet~;
#X obj -7 24 inlet;
#X obj -7 46 unpack f f f;
#X obj -7 67 sel 0;
#X obj 1 217 sig~;
#X obj 1 145 t b b;
#X obj 1 167 del 100;
#X msg 1 191 0;
#X msg 41 191 1;
#X obj 31 97 t b f;
#X obj 130 347 *~;
#X obj 149 314 *~;
#X obj 148 127 mtof;
#X obj 1 239 lop~ 20;
#X obj 317 142 / 11;
#X obj 317 210 t f f;
#X obj 317 232 *;
#X obj 317 255 t f f;
#X obj 317 277 *;
#X obj 317 119 + 1;
#X obj 317 186 + 0.5;
#X obj 317 164 * 0.5;
#X obj 148 105 + 24;
#X connect 0 0 5 0;
#X connect 1 0 2 0;
#X connect 2 0 3 0;
#X connect 3 0 0 0;
#X connect 4 0 2 1;
#X connect 5 0 7 0;
#X connect 6 0 1 0;
#X connect 7 0 19 0;
#X connect 9 0 10 0;
#X connect 10 0 11 0;
#X connect 10 1 27 0;
#X connect 10 2 4 0;
#X connect 11 1 17 0;
#X connect 12 0 21 0;
#X connect 13 0 14 0;
#X connect 13 1 16 0;
#X connect 14 0 15 0;
#X connect 15 0 12 0;
#X connect 16 0 12 0;
#X connect 17 0 13 0;
#X connect 17 1 30 0;
#X connect 18 0 8 0;
#X connect 19 0 18 1;
#X connect 20 0 6 0;
#X connect 21 0 18 0;
#X connect 22 0 29 0;
#X connect 23 0 24 0;
#X connect 23 1 24 1;
#X connect 24 0 25 0;
#X connect 25 0 26 0;
#X connect 25 1 26 1;
#X connect 26 0 19 1;
#X connect 27 0 22 0;
#X connect 28 0 23 0;
#X connect 29 0 28 0;
#X connect 30 0 20 0;
