#N canvas 738 228 350 440 10;
#X obj -1 188 osc~;
#X obj -1 212 *~;
#X obj -1 236 clip~ -1 1;
#X obj 48 189 +~ 1;
#X obj -21 407 outlet~;
#X obj -110 14 inlet;
#X obj -110 36 unpack f f f;
#X obj -110 57 sel 0;
#X obj -102 135 t b b;
#X obj -102 157 del 100;
#X msg -102 181 0;
#X msg -62 181 1;
#X obj -75 98 t b f;
#X obj -21 384 *~;
#X obj -2 318 *~;
#X obj -1 164 mtof;
#X obj 121 134 / 11;
#X obj 121 202 t f f;
#X obj 121 224 *;
#X obj 121 247 t f f;
#X obj 121 269 *;
#X obj -102 207 lop~ 20;
#X obj 121 111 + 1;
#X obj 121 178 + 0.5;
#X obj 121 156 * 0.5;
#X obj -2 340 *~ 0.8;
#X obj 53 143 / 50;
#X obj 48 165 * 3;
#X obj -1 143 + 24;
#X connect 0 0 1 0;
#X connect 1 0 2 0;
#X connect 2 0 14 0;
#X connect 3 0 1 1;
#X connect 5 0 6 0;
#X connect 6 0 7 0;
#X connect 6 1 22 0;
#X connect 6 2 26 0;
#X connect 7 1 12 0;
#X connect 8 0 9 0;
#X connect 8 1 11 0;
#X connect 9 0 10 0;
#X connect 10 0 21 0;
#X connect 11 0 21 0;
#X connect 12 0 8 0;
#X connect 12 1 28 0;
#X connect 13 0 4 0;
#X connect 14 0 25 0;
#X connect 15 0 0 0;
#X connect 16 0 24 0;
#X connect 17 0 18 0;
#X connect 17 1 18 1;
#X connect 18 0 19 0;
#X connect 19 0 20 0;
#X connect 19 1 20 1;
#X connect 20 0 14 1;
#X connect 21 0 13 0;
#X connect 22 0 16 0;
#X connect 23 0 17 0;
#X connect 24 0 23 0;
#X connect 25 0 13 1;
#X connect 26 0 27 0;
#X connect 27 0 3 0;
#X connect 28 0 15 0;
